<?xml version="1.0" standalone="no"?>
<!DOCTYPE svg PUBLIC "-//W3C//DTD SVG 20010904//EN"
 "http://www.w3.org/TR/2001/REC-SVG-20010904/DTD/svg10.dtd">
<svg version="1.0" xmlns="http://www.w3.org/2000/svg"
 width="400.000000pt" height="400.000000pt" viewBox="0 0 400.000000 400.000000"
 preserveAspectRatio="xMidYMid meet">
<metadata>
Created by potrace 1.11, written by Peter Selinger 2001-2013
</metadata>
<g transform="translate(0.000000,400.000000) scale(0.100000,-0.100000)"
fill="#000000" stroke="none">
<path d="M2817 3968 c-61 -143 -180 -414 -186 -421 -4 -4 -52 8 -107 27 -191
64 -303 81 -534 81 -156 0 -227 -5 -295 -18 -185 -37 -319 -83 -485 -169 -456
-233 -770 -649 -881 -1164 -30 -141 -38 -429 -15 -576 35 -219 104 -422 206
-597 86 -149 157 -240 284 -366 122 -121 242 -211 383 -286 l92 -50 -29 -67
c-16 -37 -58 -134 -93 -215 l-65 -148 56 3 56 3 81 187 c45 103 84 190 87 193
2 3 38 -7 79 -21 272 -96 591 -115 889 -54 491 100 925 427 1152 867 29 57 56
103 60 103 4 0 92 -37 195 -81 103 -45 203 -88 221 -95 l32 -14 0 54 0 53
-202 88 c-112 49 -205 90 -207 91 -2 2 10 52 27 111 125 431 82 864 -124 1263
-157 301 -426 571 -714 715 -30 15 -56 28 -57 29 -1 1 34 85 78 187 44 101 94
214 109 252 l29 67 -54 0 c-52 0 -55 -1 -68 -32z m-529 -557 c51 -11 129 -32
173 -46 65 -22 79 -30 74 -44 -50 -131 -1164 -2675 -1173 -2678 -7 -3 -50 16
-95 42 -377 217 -628 563 -723 996 -27 121 -27 457 0 579 63 291 200 544 401
745 230 230 500 367 824 420 122 20 396 13 519 -14z m434 -165 c372 -212 632
-572 718 -997 27 -133 36 -310 21 -439 -13 -108 -61 -314 -78 -331 -8 -8
-1265 529 -1287 551 -5 5 99 256 249 602 142 326 264 608 272 626 7 17 17 32
21 32 4 0 42 -20 84 -44z m-2 -1601 c338 -147 617 -269 620 -272 2 -2 -15 -42
-39 -89 -155 -303 -440 -559 -766 -688 -271 -106 -590 -131 -866 -65 -112 26
-211 59 -207 69 2 4 133 307 293 673 l289 666 31 -13 c16 -7 307 -133 645
-281z"/>
</g>
</svg>
